<svg id="Layer_1" data-name="Layer 1" xmlns="http://www.w3.org/2000/svg" viewBox="0 0 948.22 559.4"><defs><style>.cls-1{fill:none;stroke:#1a1a1a;stroke-miterlimit:10;stroke-width:10px;}.cls-2{fill:gray;}.cls-3{fill:#999;}.cls-4{fill:#666;}</style></defs><title>aux</title><path class="cls-1" d="M1640.68,665s-48.32-55-116.72-55-94.41,52-94.41,80.3,38.66,84.75,38.66,171.73S1373.79,968.35,1318,968.35c-100.36,0-139-71.37-139-149.43,0-87-40.89-113.75-87.73-113.75S976.05,749.78,976.05,841.22s92.19,153.15,221.54,174,296.64,137.54,543.46,137.54c151.66,0,173.22-179.17,173.22-238.65s-78.06-77.32-154.64-77.32-310,75.09-310,214.11c0,77.32,51.3,108.55,90.7,108.55S1721,1063.51,1721,946.79,1579,792.9,1579,792.9" transform="translate(-971.05 -605.01)"/><polygon class="cls-2" points="662.02 63.06 672.53 53.07 704.32 88.69 693.41 99.49 662.02 63.06"/><ellipse class="cls-3" cx="1669.94" cy="699.08" rx="7.63" ry="4.59" transform="translate(-1004.26 707.82) rotate(-42.53)"/><polygon class="cls-3" points="714.02 117.46 696.97 98.11 703.01 93.15 719.96 112.6 714.02 117.46"/><ellipse class="cls-4" cx="1687.92" cy="719.9" rx="3.83" ry="1.45" transform="translate(-1058.37 579.49) rotate(-37.76)"/><polygon class="cls-4" points="716.85 118.64 715.08 116.42 719 113.38 721.34 115.8 716.85 118.64"/><polygon class="cls-2" points="614.37 182.31 610.79 196.36 564.92 183.14 568.39 168.18 614.37 182.31"/><ellipse class="cls-3" cx="1537.7" cy="780.71" rx="7.63" ry="4.59" transform="translate(-592 1453.02) rotate(-74.71)"/><polygon class="cls-3" points="541.38 163.96 566.12 171.25 563.64 178.66 538.95 171.23 541.38 163.96"/><ellipse class="cls-4" cx="1511.39" cy="772.67" rx="3.83" ry="1.45" transform="translate(-703.9 1322.29) rotate(-69.94)"/><polygon class="cls-4" points="538.36 164.46 541.04 165.4 539.34 170.05 536.08 169.25 538.36 164.46"/><path class="cls-3" d="M1691.54,726l-4.16-.38a4.36,4.36,0,0,1,1.69-4.84c2.68-1.78,4.17-.57,4.17-.57l0,4.27A1.54,1.54,0,0,1,1691.54,726Z" transform="translate(-971.05 -605.01)"/><path class="cls-3" d="M1504.9,769.8l3.72-1.9a4.37,4.37,0,0,1,1.15,5c-1.32,2.93-3.22,2.7-3.22,2.7l-2.26-3.64A1.53,1.53,0,0,1,1504.9,769.8Z" transform="translate(-971.05 -605.01)"/></svg>