<?xml version="1.0" encoding="utf-8"?>
<!-- Generator: Adobe Illustrator 22.0.1, SVG Export Plug-In . SVG Version: 6.00 Build 0)  -->
<!DOCTYPE svg PUBLIC "-//W3C//DTD SVG 1.1//EN" "http://www.w3.org/Graphics/SVG/1.1/DTD/svg11.dtd">
<svg version="1.1" id="Layer_1" xmlns="http://www.w3.org/2000/svg" xmlns:xlink="http://www.w3.org/1999/xlink" x="0px" y="0px"
	 viewBox="0 0 320.3 320.3" style="enable-background:new 0 0 320.3 320.3;" xml:space="preserve">
<style type="text/css">
	.st0{fill:none;}
	.st1{fill:url(#SVGID_1_);stroke:#B3B3B3;stroke-width:2;stroke-miterlimit:10;}
	.st2{fill:#B3B3B3;}
	.st3{opacity:0.5;fill:#CCCCCC;enable-background:new    ;}
</style>
<title>cd</title>
<g>
	<path class="st0" d="M111,173.8c-0.1-0.3-0.2-0.7-0.3-1C110.8,173.1,110.9,173.4,111,173.8z"/>
	<path class="st0" d="M110.3,171.2c-0.1-0.3-0.1-0.7-0.2-1C110.2,170.6,110.3,170.9,110.3,171.2z"/>
	<path class="st0" d="M111.6,176c-0.1-0.3-0.2-0.5-0.3-0.8C111.5,175.5,111.5,175.7,111.6,176z"/>
	<path class="st0" d="M112.3,178.1c0-0.1-0.1-0.3-0.1-0.4C112.2,177.8,112.3,177.9,112.3,178.1z"/>
	<path class="st0" d="M109.8,168.4c0-0.2-0.1-0.4-0.1-0.6C109.7,168,109.8,168.2,109.8,168.4z"/>
	<path class="st0" d="M100.9,166.6c2.8,25.8,22.1,46.7,47.2,51.9C123.1,213.4,103.7,192.5,100.9,166.6z"/>
	<path class="st0" d="M154,219.4c-2-0.2-4-0.5-5.9-0.9C150.1,218.9,152,219.2,154,219.4z"/>
	<path class="st0" d="M100.6,160.2L100.6,160.2c0-2.2,0.1-4.3,0.4-6.5C100.7,155.8,100.6,158,100.6,160.2z"/>
	
		<linearGradient id="SVGID_1_" gradientUnits="userSpaceOnUse" x1="1301.1832" y1="-496.1218" x2="1576.8967" y2="-655.3181" gradientTransform="matrix(1 0 0 -1 -1278.88 -415.56)">
		<stop  offset="0" style="stop-color:#808080"/>
		<stop  offset="0.5" style="stop-color:#FFFFFF"/>
		<stop  offset="1" style="stop-color:#808080"/>
	</linearGradient>
	<path class="st1" d="M160.2,1C160.1,1,160.1,1,160.2,1C72.2,1,1,72.3,1,160.2c0,87.9,71.3,159.1,159.2,159.1
		c87.9,0,159.1-71.3,159.1-159.2C319.3,72.3,248.1,1,160.2,1z M160.1,219.7c-2.1,0-4.1-0.1-6.1-0.3s-4-0.5-5.9-0.9
		c-25.1-5.1-44.4-26-47.2-51.9c-0.2-2.1-0.4-4.3-0.4-6.5v0l0,0c0-2.2,0.1-4.3,0.4-6.5c2.8-25.8,22.1-46.7,47.2-51.9
		c1.9-0.4,3.9-0.7,5.9-0.9s4-0.3,6.1-0.3c32.9,0,59.5,26.7,59.5,59.5S193,219.7,160.1,219.7z"/>
	<path class="st2" d="M160.1,100.6c-2.1,0-4.1,0.1-6.1,0.3s-4,0.5-5.9,0.9c-25.1,5.1-44.4,26-47.2,51.9c-0.2,2.1-0.4,4.3-0.4,6.5
		s0.1,4.3,0.4,6.5c2.8,25.8,22.1,46.7,47.2,51.9c1.9,0.4,3.9,0.7,5.9,0.9s4,0.3,6.1,0.3c32.9,0,59.5-26.7,59.5-59.5
		S193,100.6,160.1,100.6z M169.8,210.3c-24.8,4.8-48.9-9.3-57.5-32.3c0-0.1-0.1-0.3-0.1-0.4c-0.2-0.5-0.4-1.1-0.6-1.7
		c-0.1-0.3-0.2-0.5-0.3-0.8c-0.1-0.5-0.3-1-0.4-1.5c-0.1-0.3-0.2-0.7-0.3-1c-0.1-0.5-0.2-1-0.3-1.5c-0.1-0.3-0.1-0.7-0.2-1
		c0-0.1-0.1-0.3-0.1-0.4c-0.1-0.5-0.2-0.9-0.2-1.4c0-0.2-0.1-0.4-0.1-0.6c-4.1-27,13.8-52.6,40.8-57.8c27.7-5.3,54.5,12.8,59.8,40.5
		C215.6,178.2,197.5,205,169.8,210.3z"/>
	<path class="st2" d="M148.1,101.8c-25.1,5.1-44.4,26-47.2,51.9C103.7,127.9,123.1,107,148.1,101.8z"/>
	<path class="st2" d="M100.6,160.2c0,2.2,0.1,4.3,0.4,6.5C100.7,164.5,100.6,162.3,100.6,160.2L100.6,160.2z"/>
	<path class="st2" d="M148.1,101.8c1.9-0.4,3.9-0.7,5.9-0.9C152,101.1,150.1,101.4,148.1,101.8z"/>
	<path class="st3" d="M160.1,211.2c28.2,0,51-22.8,51-51c0-28.2-22.8-51-51-51s-51,22.8-51,51c0,2.6,0.2,5.1,0.6,7.6
		c0,0.2,0.1,0.4,0.1,0.6c0.1,0.6,0.2,1.2,0.3,1.8c0.1,0.3,0.1,0.7,0.2,1c0.1,0.5,0.2,1,0.3,1.5c0.1,0.3,0.2,0.7,0.3,1
		c0.1,0.5,0.3,1,0.4,1.5c0.1,0.3,0.2,0.5,0.3,0.8c0.2,0.6,0.4,1.1,0.6,1.7c0,0.1,0.1,0.3,0.1,0.4
		C119.6,197.4,138.2,211.2,160.1,211.2z M160.2,137.7c12.4,0,22.5,10.1,22.5,22.5s-10.1,22.5-22.5,22.5c-12.4,0-22.5-10.1-22.5-22.5
		S147.7,137.7,160.2,137.7z"/>
	<path class="st2" d="M150.5,110.1c-27,5.2-44.9,30.8-40.8,57.8c-0.4-2.5-0.6-5-0.6-7.6c0-28.2,22.8-51,51-51s51,22.8,51,51
		c0,28.2-22.8,51-51,51c-21.9,0-40.5-13.8-47.8-33.2c8.5,22.9,32.6,37,57.5,32.3c27.7-5.3,45.8-32.1,40.5-59.8
		C205,122.8,178.2,104.7,150.5,110.1z"/>
	<path class="st3" d="M150.5,110.1c-27,5.2-44.9,30.8-40.8,57.8c-0.4-2.5-0.6-5-0.6-7.6c0-28.2,22.8-51,51-51s51,22.8,51,51
		c0,28.2-22.8,51-51,51c-21.9,0-40.5-13.8-47.8-33.2c8.5,22.9,32.6,37,57.5,32.3c27.7-5.3,45.8-32.1,40.5-59.8
		C205,122.8,178.2,104.7,150.5,110.1z"/>
	<path class="st2" d="M111.4,175.2c-0.1-0.5-0.3-1-0.4-1.5C111.1,174.2,111.2,174.7,111.4,175.2z"/>
	<path class="st3" d="M111.4,175.2c-0.1-0.5-0.3-1-0.4-1.5C111.1,174.2,111.2,174.7,111.4,175.2z"/>
	<path class="st2" d="M110.7,172.7c-0.1-0.5-0.2-1-0.3-1.5C110.4,171.7,110.6,172.2,110.7,172.7z"/>
	<path class="st3" d="M110.7,172.7c-0.1-0.5-0.2-1-0.3-1.5C110.4,171.7,110.6,172.2,110.7,172.7z"/>
	<path class="st2" d="M110,169.8c0,0.1,0.1,0.3,0.1,0.4c-0.1-0.6-0.2-1.2-0.3-1.8C109.9,168.9,109.9,169.4,110,169.8z"/>
	<path class="st3" d="M110,169.8c0,0.1,0.1,0.3,0.1,0.4c-0.1-0.6-0.2-1.2-0.3-1.8C109.9,168.9,109.9,169.4,110,169.8z"/>
	<path class="st2" d="M112.2,177.7c-0.2-0.5-0.4-1.1-0.6-1.7C111.8,176.6,112,177.1,112.2,177.7z"/>
	<path class="st3" d="M112.2,177.7c-0.2-0.5-0.4-1.1-0.6-1.7C111.8,176.6,112,177.1,112.2,177.7z"/>
</g>
</svg>
