<svg id="Layer_1" data-name="Layer 1" xmlns="http://www.w3.org/2000/svg" viewBox="0 0 386.43 521.22"><defs><style>.cls-1{fill:#1a1a1a;}.cls-2{fill:#dee1b6;}.cls-3{fill:#333;}.cls-4{fill:#4d4d4d;}.cls-5,.cls-7,.cls-9{fill:none;stroke-miterlimit:10;}.cls-5{stroke:#333;stroke-width:4px;}.cls-6{fill:#e6e6e6;}.cls-7{stroke:#000;}.cls-8{fill:#666;}.cls-9{stroke:#fff;}</style></defs><title>keyboard</title><polygon class="cls-1" points="82.67 244.72 326.28 350.22 253.2 510.3 0 392.06 82.67 244.72"/><polygon class="cls-2" points="66.64 80.68 74.41 89.25 70.94 92.38 64.76 84.85 64.04 82.14 66.64 80.68"/><polygon class="cls-3" points="93.98 112.87 74.36 86.97 67.69 89.53 70.24 93.84 89.33 117.08 93.98 112.87"/><polygon class="cls-4" points="326.28 350.22 332.27 365.24 257.71 521.22 253.2 510.3 326.28 350.22"/><path class="cls-5" d="M1333.16,758.17c4,2.89,21.19,14.43,43.68,11,24.75-3.79,41.61-24.57,48.26-42.18,11.75-31.1-9.19-50.49,3.9-67.15,12-15.3,46.32-20.09,66-1.17,16.72,16.09,17.34,44,6.25,59.34-16,22.21-50.21,9.41-61.69,30.46-6.72,12.34-.75,27.34,6.25,44.9,5.91,14.82,18,45.28,49.19,60.51,30.11,14.73,79.4,15.93,93.71-10.93,9-16.82,3.42-43.18-13.67-56.61-21.82-17.16-53.77-6.38-70.67,9.37-24.44,22.78-26,64-9.37,82,17.41,18.89,43.16-.27,84,20.3,9.59,4.84,36,18.16,44.89,46.46,5.74,18.22,4.58,47.57-15.22,64.81-24.21,21.09-37.86,5.29-41.76,4" transform="translate(-1243.2 -644.31)"/><path class="cls-3" d="M1610.71,1001.7l6.62,2.94a3.71,3.71,0,0,0,4.86-1.79l7.07-14.68a3.73,3.73,0,0,0-2-5.09l-7-2.7a3.72,3.72,0,0,0-4.72,1.91l-6.67,14.44A3.73,3.73,0,0,0,1610.71,1001.7Z" transform="translate(-1243.2 -644.31)"/><polygon class="cls-3" points="257.71 521.22 4.47 402.73 0 392.06 253.2 510.3 257.71 521.22"/><polygon class="cls-6" points="42.82 323.14 284.61 432.25 250.27 506.76 4.47 390.68 42.82 323.14"/><line class="cls-7" x1="267.78" y1="424.66" x2="233.05" y2="499.35"/><line class="cls-7" x1="250.42" y1="416.13" x2="215.69" y2="490.83"/><line class="cls-7" x1="233.05" y1="408.59" x2="198.32" y2="483.28"/><line class="cls-7" x1="215.69" y1="401.04" x2="180.96" y2="475.74"/><line class="cls-7" x1="200.96" y1="394.5" x2="164.42" y2="467.34"/><line class="cls-7" x1="185.21" y1="385" x2="147.61" y2="459.94"/><line class="cls-7" x1="168.59" y1="377.11" x2="130.84" y2="452.35"/><line class="cls-7" x1="151.95" y1="372.39" x2="114.7" y2="444.1"/><line class="cls-7" x1="136.3" y1="363.4" x2="98.11" y2="436.91"/><line class="cls-7" x1="119.28" y1="357.64" x2="82.02" y2="429.37"/><line class="cls-7" x1="102.94" y1="350.22" x2="65.68" y2="421.94"/><line class="cls-7" x1="88.04" y1="343.54" x2="50.51" y2="414.51"/><line class="cls-7" x1="72.16" y1="336.09" x2="34.9" y2="406.55"/><line class="cls-7" x1="56.84" y1="328.43" x2="19.58" y2="398.89"/><polygon class="cls-1" points="250.42 413.18 226.93 458.7 236 463.49 257.71 419.54 250.42 413.18"/><polygon class="cls-1" points="230.3 404.9 208.12 450.89 217.19 454.8 238.9 410.86 230.3 404.9"/><polygon class="cls-1" points="189.53 441.94 197.76 445.94 221.17 399.59 212.69 395.31 189.53 441.94"/><polygon class="cls-1" points="159.47 427.69 167.93 432.42 190.99 386.8 182.78 380.75 159.47 427.69"/><polygon class="cls-1" points="140.09 419.17 148.73 423.61 172.32 377.43 163.41 373.99 140.09 419.17"/><polygon class="cls-1" points="111.31 405.75 119.54 410.06 142 366.06 135.89 359.88 111.31 405.75"/><polygon class="cls-1" points="93.33 397.22 100.97 401.07 123.94 358 115.89 354.56 93.33 397.22"/><polygon class="cls-1" points="75.7 389.05 83.23 392.96 106.1 350.68 98.31 346.98 75.7 389.05"/><polygon class="cls-1" points="55.38 379.83 78.38 338.3 70.15 334.49 47.44 376.32 55.38 379.83"/><polygon class="cls-1" points="29.7 367.68 37.58 371.32 60.45 330.08 52.76 326.43 29.7 367.68"/><polygon class="cls-8" points="83.58 257.65 95 262.61 90.9 269.35 79.04 264.56 83.58 257.65"/><polygon class="cls-8" points="99.54 264.26 110.95 269.22 106.85 275.95 95 271.16 99.54 264.26"/><polygon class="cls-8" points="77.64 268.27 89.06 273.23 84.95 279.96 73.1 275.18 77.64 268.27"/><polygon class="cls-8" points="92.99 274.99 104.41 279.95 100.31 286.68 88.45 281.89 92.99 274.99"/><polygon class="cls-8" points="71.58 278.54 83 283.5 78.89 290.23 67.04 285.44 71.58 278.54"/><polygon class="cls-8" points="64.99 289.69 76.4 294.65 72.3 301.38 60.45 296.6 64.99 289.69"/><polygon class="cls-8" points="58.67 300.84 70.09 305.8 65.99 312.53 54.13 307.75 58.67 300.84"/><polygon class="cls-8" points="74.94 306.41 86.36 311.37 82.26 318.1 70.4 313.32 74.94 306.41"/><polygon class="cls-8" points="80.47 295.7 91.88 300.67 87.78 307.4 75.93 302.61 80.47 295.7"/><polygon class="cls-8" points="86.53 285.33 97.95 290.3 93.85 297.03 81.99 292.24 86.53 285.33"/><polygon class="cls-8" points="117.46 273.05 140.34 282.89 127.78 304.71 104.41 294.7 117.46 273.05"/><polygon class="cls-8" points="146.38 285.01 169.26 294.85 156.69 316.67 133.32 306.65 146.38 285.01"/><polygon class="cls-8" points="174.3 297.96 197.18 307.8 184.61 329.62 161.24 319.61 174.3 297.96"/><polygon class="cls-8" points="202.06 309.92 224.95 319.76 212.38 341.58 189.01 331.56 202.06 309.92"/><polygon class="cls-8" points="102.5 300.44 125.38 310.28 112.81 332.11 89.44 322.09 102.5 300.44"/><polygon class="cls-8" points="131.41 312.4 154.3 322.24 141.73 344.06 118.36 334.04 131.41 312.4"/><polygon class="cls-8" points="159.33 325.35 182.22 335.19 169.65 357.01 146.28 347 159.33 325.35"/><polygon class="cls-8" points="187.1 337.31 209.99 347.15 197.42 368.97 174.05 358.95 187.1 337.31"/><circle class="cls-8" cx="225.4" cy="348.24" r="7"/><circle class="cls-8" cx="248.76" cy="357.64" r="7"/><circle class="cls-8" cx="272.12" cy="368.31" r="7"/><circle class="cls-8" cx="296.42" cy="378.98" r="7"/><circle class="cls-8" cx="212.35" cy="375.74" r="7"/><circle class="cls-8" cx="235.35" cy="385.06" r="7"/><circle class="cls-8" cx="258.34" cy="395.72" r="7"/><circle class="cls-8" cx="282.64" cy="406.39" r="7"/><line class="cls-9" x1="225.4" y1="348.24" x2="219.35" y2="348.24"/><line class="cls-9" x1="248.76" y1="357.64" x2="248.12" y2="353.14"/><line class="cls-9" x1="272.12" y1="368.31" x2="276.31" y2="371.29"/><line class="cls-9" x1="296.81" y1="378.98" x2="298.35" y2="373.99"/><line class="cls-9" x1="282.64" y1="406.39" x2="277.18" y2="407.28"/><line class="cls-9" x1="258.34" y1="395.72" x2="252.93" y2="396.79"/><line class="cls-9" x1="235.35" y1="385.06" x2="237.73" y2="390.15"/><line class="cls-9" x1="212.35" y1="375.74" x2="215.69" y2="371.98"/></svg>