<?xml version="1.0" encoding="utf-8"?>
<!-- Generator: Adobe Illustrator 22.0.1, SVG Export Plug-In . SVG Version: 6.00 Build 0)  -->
<!DOCTYPE svg PUBLIC "-//W3C//DTD SVG 1.1//EN" "http://www.w3.org/Graphics/SVG/1.1/DTD/svg11.dtd">
<svg version="1.1" id="Layer_1" xmlns="http://www.w3.org/2000/svg" xmlns:xlink="http://www.w3.org/1999/xlink" x="0px" y="0px"
	 viewBox="0 0 288.7 361.7" style="enable-background:new 0 0 288.7 361.7;" xml:space="preserve">
<style type="text/css">
	.st0{fill:none;}
	.st1{fill:none;stroke:#231F20;stroke-width:0.5;}
	.st2{fill:none;stroke:#373B44;stroke-width:3;stroke-miterlimit:10;}
	.st3{fill:#1A1A1A;}
	.st4{fill:#BE5632;}
	.st5{fill:url(#SVGID_1_);}
	.st6{fill:#333333;}
	.st7{fill:#DEE1B6;}
</style>
<pattern  y="361.7" width="72" height="72" patternUnits="userSpaceOnUse" id="Burlap" viewBox="12.8 -86.3 72 72" style="overflow:visible;">
	<g>
		<rect x="12.8" y="-86.3" class="st0" width="72" height="72"/>
		<rect x="12.8" y="-86.3" class="st0" width="72" height="72"/>
		<line class="st1" x1="83.2" y1="-86.5" x2="97.8" y2="-86.5"/>
		<line class="st1" x1="11.2" y1="-86.5" x2="25.8" y2="-86.5"/>
		<line class="st1" x1="81.3" y1="-21.3" x2="96" y2="-21.3"/>
		<line class="st1" x1="79.7" y1="-28" x2="94.3" y2="-28"/>
		<line class="st1" x1="83.2" y1="-14.5" x2="97.8" y2="-14.5"/>
		<line class="st1" x1="84.2" y1="-45.3" x2="98.8" y2="-45.3"/>
		<line class="st1" x1="88.7" y1="-17.2" x2="74" y2="-17.2"/>
		<line class="st1" x1="92.2" y1="-22.7" x2="77.5" y2="-22.7"/>
		<line class="st1" x1="74.3" y1="-30.8" x2="89" y2="-30.8"/>
		<line class="st1" x1="78" y1="-79.8" x2="92.7" y2="-79.8"/>
		<line class="st1" x1="74.3" y1="-84.5" x2="89" y2="-84.5"/>
		<line class="st1" x1="79.7" y1="-82.5" x2="94.3" y2="-82.5"/>
		<line class="st1" x1="75" y1="-77.5" x2="89.7" y2="-77.5"/>
		<line class="st1" x1="79.7" y1="-68.8" x2="94.3" y2="-68.8"/>
		<line class="st1" x1="76.3" y1="-73.2" x2="91" y2="-73.2"/>
		<line class="st1" x1="89.8" y1="-37.7" x2="75.2" y2="-37.7"/>
		<line class="st1" x1="90.3" y1="-41.2" x2="75.7" y2="-41.2"/>
		<line class="st1" x1="93.3" y1="-43.2" x2="78.7" y2="-43.2"/>
		<line class="st1" x1="79" y1="-33" x2="93.7" y2="-33"/>
		<line class="st1" x1="89.5" y1="-47.2" x2="74.8" y2="-47.2"/>
		<line class="st1" x1="93.5" y1="-49.2" x2="78.8" y2="-49.2"/>
		<line class="st1" x1="87.8" y1="-51.5" x2="73.2" y2="-51.5"/>
		<line class="st1" x1="76" y1="-65.8" x2="90.7" y2="-65.8"/>
		<line class="st1" x1="78" y1="-61.5" x2="92.7" y2="-61.5"/>
		<line class="st1" x1="78" y1="-56.2" x2="92.7" y2="-56.2"/>
		<line class="st1" x1="80.7" y1="-58.8" x2="95.3" y2="-58.8"/>
		<line class="st1" x1="82.7" y1="-53.8" x2="97.3" y2="-53.8"/>
		<line class="st1" x1="22.5" y1="-20" x2="22.5" y2="-34.7"/>
		<line class="st1" x1="25" y1="-23" x2="25" y2="-37.7"/>
		<line class="st1" x1="21.3" y1="-32.7" x2="21.3" y2="-47.3"/>
		<line class="st1" x1="28.7" y1="-33" x2="28.7" y2="-47.7"/>
		<line class="st1" x1="19" y1="-26" x2="19" y2="-40.7"/>
		<line class="st1" x1="31" y1="-23" x2="31" y2="-37.7"/>
		<line class="st1" x1="36.5" y1="-23" x2="36.5" y2="-37.7"/>
		<line class="st1" x1="37.8" y1="-26.7" x2="37.8" y2="-41.3"/>
		<line class="st1" x1="34" y1="-17.5" x2="34" y2="-32.2"/>
		<line class="st1" x1="27.5" y1="-19.5" x2="27.5" y2="-34.2"/>
		<line class="st1" x1="14" y1="-25.3" x2="28.7" y2="-25.3"/>
		<line class="st1" x1="9.3" y1="-21.3" x2="24" y2="-21.3"/>
		<line class="st1" x1="7.7" y1="-28" x2="22.3" y2="-28"/>
		<line class="st1" x1="26" y1="-21.7" x2="40.7" y2="-21.7"/>
		<line class="st1" x1="20.8" y1="-23.5" x2="35.5" y2="-23.5"/>
		<line class="st1" x1="24.5" y1="-31.7" x2="39.2" y2="-31.7"/>
		<line class="st1" x1="17.8" y1="-29.2" x2="32.5" y2="-29.2"/>
		<line class="st1" x1="51.3" y1="-24.3" x2="51.3" y2="-39"/>
		<line class="st1" x1="48.8" y1="-27.3" x2="48.8" y2="-42"/>
		<line class="st1" x1="54.8" y1="-30.3" x2="54.8" y2="-45"/>
		<line class="st1" x1="56.2" y1="-37.7" x2="56.2" y2="-52.3"/>
		<line class="st1" x1="57.5" y1="-30.3" x2="57.5" y2="-45"/>
		<line class="st1" x1="42.8" y1="-27.3" x2="42.8" y2="-42"/>
		<line class="st1" x1="32.7" y1="-30.7" x2="32.7" y2="-45.3"/>
		<line class="st1" x1="41.2" y1="-20.8" x2="41.2" y2="-35.5"/>
		<line class="st1" x1="39.5" y1="-17.5" x2="39.5" y2="-32.2"/>
		<line class="st1" x1="46.3" y1="-22.5" x2="46.3" y2="-37.2"/>
		<line class="st1" x1="54.8" y1="-29" x2="40.2" y2="-29"/>
		<line class="st1" x1="46.5" y1="-27" x2="31.8" y2="-27"/>
		<line class="st1" x1="55.3" y1="-32.5" x2="40.7" y2="-32.5"/>
		<line class="st1" x1="49.7" y1="-36.3" x2="35" y2="-36.3"/>
		<line class="st1" x1="58.3" y1="-34.5" x2="43.7" y2="-34.5"/>
		<line class="st1" x1="83.7" y1="-15.5" x2="83.7" y2="-30.2"/>
		<line class="st1" x1="79" y1="-15.5" x2="79" y2="-30.2"/>
		<line class="st1" x1="71.2" y1="-15.5" x2="71.2" y2="-30.2"/>
		<line class="st1" x1="88.7" y1="-17.2" x2="74" y2="-17.2"/>
		<line class="st1" x1="87.2" y1="-19.7" x2="72.5" y2="-19.7"/>
		<line class="st1" x1="83.2" y1="-24.2" x2="68.5" y2="-24.2"/>
		<line class="st1" x1="75.2" y1="-22.8" x2="60.5" y2="-22.8"/>
		<line class="st1" x1="92.2" y1="-22.7" x2="77.5" y2="-22.7"/>
		<line class="st1" x1="54.3" y1="-16.8" x2="54.3" y2="-31.5"/>
		<line class="st1" x1="58.8" y1="-19.8" x2="58.8" y2="-34.5"/>
		<line class="st1" x1="52.8" y1="-22.8" x2="52.8" y2="-37.5"/>
		<line class="st1" x1="65.5" y1="-19.2" x2="65.5" y2="-33.8"/>
		<line class="st1" x1="75" y1="-23.2" x2="75" y2="-37.8"/>
		<line class="st1" x1="67.8" y1="-14.3" x2="67.8" y2="-29"/>
		<line class="st1" x1="63" y1="-15.3" x2="63" y2="-30"/>
		<line class="st1" x1="52.7" y1="-16.7" x2="67.3" y2="-16.7"/>
		<line class="st1" x1="59.8" y1="-18.5" x2="74.5" y2="-18.5"/>
		<line class="st1" x1="51.5" y1="-20.2" x2="66.2" y2="-20.2"/>
		<line class="st1" x1="52.3" y1="-25" x2="67" y2="-25"/>
		<line class="st1" x1="58" y1="-29.8" x2="72.7" y2="-29.8"/>
		<line class="st1" x1="61.7" y1="-27.8" x2="76.3" y2="-27.8"/>
		<line class="st1" x1="49.3" y1="-27" x2="64" y2="-27"/>
		<line class="st1" x1="44.3" y1="-16" x2="44.3" y2="-30.7"/>
		<line class="st1" x1="42.7" y1="-15.3" x2="42.7" y2="-30"/>
		<line class="st1" x1="36.7" y1="-16" x2="36.7" y2="-30.7"/>
		<line class="st1" x1="14.8" y1="-52.7" x2="14.8" y2="-67.3"/>
		<line class="st1" x1="14.3" y1="-36.2" x2="14.3" y2="-50.8"/>
		<line class="st1" x1="15.5" y1="-24.2" x2="15.5" y2="-38.8"/>
		<line class="st1" x1="13.5" y1="-21.7" x2="13.5" y2="-36.3"/>
		<line class="st1" x1="11.2" y1="-14.5" x2="25.8" y2="-14.5"/>
		<line class="st1" x1="19.5" y1="-16.2" x2="34.2" y2="-16.2"/>
		<line class="st1" x1="14" y1="-18.7" x2="28.7" y2="-18.7"/>
		<line class="st1" x1="36" y1="-19.3" x2="50.7" y2="-19.3"/>
		<line class="st1" x1="31" y1="-18" x2="45.7" y2="-18"/>
		<line class="st1" x1="33" y1="-15.3" x2="47.7" y2="-15.3"/>
		<line class="st1" x1="38.3" y1="-23.7" x2="53" y2="-23.7"/>
		<line class="st1" x1="54.5" y1="-38.5" x2="39.8" y2="-38.5"/>
		<line class="st1" x1="58.5" y1="-40.5" x2="43.8" y2="-40.5"/>
		<line class="st1" x1="52.8" y1="-42.8" x2="38.2" y2="-42.8"/>
		<line class="st1" x1="31" y1="-48.7" x2="31" y2="-63.3"/>
		<line class="st1" x1="34.5" y1="-54.7" x2="34.5" y2="-69.3"/>
		<line class="st1" x1="28.8" y1="-51" x2="14.2" y2="-51"/>
		<line class="st1" x1="39.8" y1="-55" x2="25.2" y2="-55"/>
		<line class="st1" x1="35" y1="-56.8" x2="20.3" y2="-56.8"/>
		<line class="st1" x1="38" y1="-58.8" x2="23.3" y2="-58.8"/>
		<line class="st1" x1="50.8" y1="-39.8" x2="50.8" y2="-54.5"/>
		<line class="st1" x1="52.2" y1="-45.7" x2="52.2" y2="-60.3"/>
		<line class="st1" x1="36" y1="-41.2" x2="36" y2="-55.8"/>
		<line class="st1" x1="39.2" y1="-35.8" x2="39.2" y2="-50.5"/>
		<line class="st1" x1="44.5" y1="-44.2" x2="44.5" y2="-58.8"/>
		<line class="st1" x1="47.5" y1="-38.7" x2="47.5" y2="-53.3"/>
		<line class="st1" x1="45.8" y1="-38.3" x2="45.8" y2="-53"/>
		<line class="st1" x1="41" y1="-40.7" x2="41" y2="-55.3"/>
		<line class="st1" x1="37.7" y1="-54.2" x2="52.3" y2="-54.2"/>
		<line class="st1" x1="40.3" y1="-55.5" x2="55" y2="-55.5"/>
		<line class="st1" x1="43" y1="-52.8" x2="57.7" y2="-52.8"/>
		<line class="st1" x1="43" y1="-47.5" x2="57.7" y2="-47.5"/>
		<line class="st1" x1="45.7" y1="-50.2" x2="60.3" y2="-50.2"/>
		<line class="st1" x1="59" y1="-47.5" x2="73.7" y2="-47.5"/>
		<line class="st1" x1="47.7" y1="-45.2" x2="62.3" y2="-45.2"/>
		<line class="st1" x1="74.3" y1="-30.8" x2="89" y2="-30.8"/>
		<line class="st1" x1="58.3" y1="-37.8" x2="73" y2="-37.8"/>
		<line class="st1" x1="56.3" y1="-35.5" x2="71" y2="-35.5"/>
		<line class="st1" x1="29" y1="-51.3" x2="43.7" y2="-51.3"/>
		<line class="st1" x1="29.3" y1="-49.3" x2="44" y2="-49.3"/>
		<line class="st1" x1="43.2" y1="-60.2" x2="28.5" y2="-60.2"/>
		<line class="st1" x1="34.8" y1="-35.2" x2="34.8" y2="-49.8"/>
		<line class="st1" x1="32.7" y1="-31.7" x2="32.7" y2="-46.3"/>
		<line class="st1" x1="23.7" y1="-40.3" x2="38.3" y2="-40.3"/>
		<line class="st1" x1="16.7" y1="-39" x2="31.3" y2="-39"/>
		<line class="st1" x1="18.3" y1="-37" x2="33" y2="-37"/>
		<line class="st1" x1="17" y1="-34.3" x2="31.7" y2="-34.3"/>
		<line class="st1" x1="26.3" y1="-34.3" x2="41" y2="-34.3"/>
		<line class="st1" x1="19.8" y1="-58" x2="19.8" y2="-72.7"/>
		<line class="st1" x1="22.3" y1="-61" x2="22.3" y2="-75.7"/>
		<line class="st1" x1="18.7" y1="-70.7" x2="18.7" y2="-85.3"/>
		<line class="st1" x1="15.7" y1="-68.3" x2="15.7" y2="-83"/>
		<line class="st1" x1="26" y1="-71" x2="26" y2="-85.7"/>
		<line class="st1" x1="28.3" y1="-61" x2="28.3" y2="-75.7"/>
		<line class="st1" x1="37.8" y1="-52.7" x2="37.8" y2="-67.3"/>
		<line class="st1" x1="71.3" y1="-74.3" x2="71.3" y2="-89"/>
		<line class="st1" x1="74.2" y1="-61.7" x2="74.2" y2="-76.3"/>
		<line class="st1" x1="70.8" y1="-78.3" x2="56.2" y2="-78.3"/>
		<line class="st1" x1="75.3" y1="-82.5" x2="60.7" y2="-82.5"/>
		<line class="st1" x1="72.7" y1="-84.5" x2="58" y2="-84.5"/>
		<line class="st1" x1="76.7" y1="-80.8" x2="62" y2="-80.8"/>
		<line class="st1" x1="76.3" y1="-66.8" x2="76.3" y2="-81.5"/>
		<line class="st1" x1="72.8" y1="-72.8" x2="72.8" y2="-87.5"/>
		<line class="st1" x1="61.5" y1="-62.2" x2="61.5" y2="-76.8"/>
		<line class="st1" x1="59.8" y1="-64.8" x2="59.8" y2="-79.5"/>
		<line class="st1" x1="57.8" y1="-70.7" x2="57.8" y2="-85.3"/>
		<line class="st1" x1="80" y1="-68.7" x2="80" y2="-83.3"/>
		<line class="st1" x1="81.7" y1="-62.7" x2="81.7" y2="-77.3"/>
		<line class="st1" x1="84" y1="-60.3" x2="84" y2="-75"/>
		<line class="st1" x1="78" y1="-79.8" x2="92.7" y2="-79.8"/>
		<line class="st1" x1="74.3" y1="-84.5" x2="89" y2="-84.5"/>
		<line class="st1" x1="79.7" y1="-82.5" x2="94.3" y2="-82.5"/>
		<line class="st1" x1="75" y1="-77.5" x2="89.7" y2="-77.5"/>
		<line class="st1" x1="72" y1="-70.8" x2="86.7" y2="-70.8"/>
		<line class="st1" x1="79.7" y1="-68.8" x2="94.3" y2="-68.8"/>
		<line class="st1" x1="76.3" y1="-73.2" x2="91" y2="-73.2"/>
		<line class="st1" x1="78.2" y1="-78.3" x2="78.2" y2="-93"/>
		<line class="st1" x1="82.5" y1="-75.7" x2="82.5" y2="-90.3"/>
		<line class="st1" x1="16.3" y1="-62.7" x2="31" y2="-62.7"/>
		<line class="st1" x1="21" y1="-82" x2="35.7" y2="-82"/>
		<line class="st1" x1="17.8" y1="-65.2" x2="32.5" y2="-65.2"/>
		<line class="st1" x1="21.8" y1="-69.7" x2="36.5" y2="-69.7"/>
		<line class="st1" x1="32.8" y1="-66.7" x2="47.5" y2="-66.7"/>
		<line class="st1" x1="13.7" y1="-66.8" x2="28.3" y2="-66.8"/>
		<line class="st1" x1="30.5" y1="-66.3" x2="30.5" y2="-81"/>
		<line class="st1" x1="45.2" y1="-64" x2="30.5" y2="-64"/>
		<line class="st1" x1="47" y1="-74.3" x2="32.3" y2="-74.3"/>
		<line class="st1" x1="48.7" y1="-76" x2="34" y2="-76"/>
		<line class="st1" x1="47.2" y1="-71" x2="32.5" y2="-71"/>
		<line class="st1" x1="51.8" y1="-68.3" x2="37.2" y2="-68.3"/>
		<line class="st1" x1="32.2" y1="-73.2" x2="32.2" y2="-87.8"/>
		<line class="st1" x1="25.3" y1="-52.3" x2="25.3" y2="-67"/>
		<line class="st1" x1="23.7" y1="-47" x2="23.7" y2="-61.7"/>
		<line class="st1" x1="26.7" y1="-44" x2="26.7" y2="-58.7"/>
		<line class="st1" x1="21.3" y1="-45.7" x2="21.3" y2="-60.3"/>
		<line class="st1" x1="17.7" y1="-46.7" x2="17.7" y2="-61.3"/>
		<line class="st1" x1="19.7" y1="-42" x2="19.7" y2="-56.7"/>
		<line class="st1" x1="21" y1="-78.3" x2="35.7" y2="-78.3"/>
		<line class="st1" x1="13.8" y1="-76.7" x2="28.5" y2="-76.7"/>
		<line class="st1" x1="15.7" y1="-75" x2="30.3" y2="-75"/>
		<line class="st1" x1="42.3" y1="-64.3" x2="42.3" y2="-79"/>
		<line class="st1" x1="39.3" y1="-57.3" x2="39.3" y2="-72"/>
		<line class="st1" x1="38.7" y1="-74" x2="38.7" y2="-88.7"/>
		<line class="st1" x1="46" y1="-74.3" x2="46" y2="-89"/>
		<line class="st1" x1="36.3" y1="-67.3" x2="36.3" y2="-82"/>
		<line class="st1" x1="48.3" y1="-64.3" x2="48.3" y2="-79"/>
		<line class="st1" x1="43.8" y1="-73.2" x2="43.8" y2="-87.8"/>
		<line class="st1" x1="40.8" y1="-69.2" x2="40.8" y2="-83.8"/>
		<line class="st1" x1="41" y1="-85.3" x2="55.7" y2="-85.3"/>
		<line class="st1" x1="43" y1="-83" x2="57.7" y2="-83"/>
		<line class="st1" x1="50" y1="-72" x2="50" y2="-86.7"/>
		<line class="st1" x1="45.3" y1="-59.7" x2="45.3" y2="-74.3"/>
		<line class="st1" x1="67.8" y1="-72" x2="67.8" y2="-86.7"/>
		<line class="st1" x1="60.8" y1="-80" x2="60.8" y2="-94.7"/>
		<line class="st1" x1="47" y1="-55" x2="47" y2="-69.7"/>
		<line class="st1" x1="41" y1="-81.7" x2="55.7" y2="-81.7"/>
		<line class="st1" x1="34" y1="-80.3" x2="48.7" y2="-80.3"/>
		<line class="st1" x1="26" y1="-83.7" x2="40.7" y2="-83.7"/>
		<line class="st1" x1="20.7" y1="-85" x2="35.3" y2="-85"/>
		<line class="st1" x1="35.7" y1="-78.3" x2="50.3" y2="-78.3"/>
		<line class="st1" x1="14.3" y1="-72.3" x2="29" y2="-72.3"/>
		<line class="st1" x1="23.7" y1="-72.3" x2="38.3" y2="-72.3"/>
		<line class="st1" x1="29.3" y1="-45.2" x2="44" y2="-45.2"/>
		<line class="st1" x1="20.7" y1="-42.3" x2="35.3" y2="-42.3"/>
		<line class="st1" x1="19.5" y1="-47.7" x2="34.2" y2="-47.7"/>
		<line class="st1" x1="12.2" y1="-45.3" x2="26.8" y2="-45.3"/>
		<line class="st1" x1="60" y1="-31.7" x2="60" y2="-46.3"/>
		<line class="st1" x1="63.7" y1="-41.7" x2="63.7" y2="-56.3"/>
		<line class="st1" x1="65.7" y1="-34.3" x2="65.7" y2="-49"/>
		<line class="st1" x1="71.5" y1="-31.7" x2="71.5" y2="-46.3"/>
		<line class="st1" x1="72.8" y1="-35.3" x2="72.8" y2="-50"/>
		<line class="st1" x1="69" y1="-26.2" x2="69" y2="-40.8"/>
		<line class="st1" x1="61.5" y1="-28.2" x2="61.5" y2="-42.8"/>
		<line class="st1" x1="59.5" y1="-40.3" x2="74.2" y2="-40.3"/>
		<line class="st1" x1="53.2" y1="-62.7" x2="53.2" y2="-77.3"/>
		<line class="st1" x1="54.5" y1="-70" x2="54.5" y2="-84.7"/>
		<line class="st1" x1="51.2" y1="-59.7" x2="51.2" y2="-74.3"/>
		<line class="st1" x1="55.8" y1="-62.7" x2="55.8" y2="-77.3"/>
		<line class="st1" x1="77.8" y1="-36" x2="77.8" y2="-50.7"/>
		<line class="st1" x1="67.7" y1="-39.3" x2="67.7" y2="-54"/>
		<line class="st1" x1="76.2" y1="-29.5" x2="76.2" y2="-44.2"/>
		<line class="st1" x1="79.8" y1="-24.8" x2="79.8" y2="-39.5"/>
		<line class="st1" x1="81.3" y1="-27" x2="81.3" y2="-41.7"/>
		<line class="st1" x1="83.3" y1="-31.8" x2="83.3" y2="-46.5"/>
		<line class="st1" x1="89.8" y1="-37.7" x2="75.2" y2="-37.7"/>
		<line class="st1" x1="82.8" y1="-34.7" x2="68.2" y2="-34.7"/>
		<line class="st1" x1="77.2" y1="-32.3" x2="62.5" y2="-32.3"/>
		<line class="st1" x1="81.5" y1="-26" x2="66.8" y2="-26"/>
		<line class="st1" x1="90.3" y1="-41.2" x2="75.7" y2="-41.2"/>
		<line class="st1" x1="84.7" y1="-45" x2="70" y2="-45"/>
		<line class="st1" x1="93.3" y1="-43.2" x2="78.7" y2="-43.2"/>
		<line class="st1" x1="54.7" y1="-49.2" x2="54.7" y2="-63.8"/>
		<line class="st1" x1="57.2" y1="-52.2" x2="57.2" y2="-66.8"/>
		<line class="st1" x1="72.5" y1="-55.2" x2="72.5" y2="-69.8"/>
		<line class="st1" x1="59.7" y1="-48.7" x2="59.7" y2="-63.3"/>
		<line class="st1" x1="50.7" y1="-57.3" x2="65.3" y2="-57.3"/>
		<line class="st1" x1="56.3" y1="-62.2" x2="71" y2="-62.2"/>
		<line class="st1" x1="79" y1="-33" x2="93.7" y2="-33"/>
		<line class="st1" x1="89.5" y1="-47.2" x2="74.8" y2="-47.2"/>
		<line class="st1" x1="93.5" y1="-49.2" x2="78.8" y2="-49.2"/>
		<line class="st1" x1="87.8" y1="-51.5" x2="73.2" y2="-51.5"/>
		<line class="st1" x1="66" y1="-57.3" x2="66" y2="-72"/>
		<line class="st1" x1="69.5" y1="-63.3" x2="69.5" y2="-78"/>
		<line class="st1" x1="65.5" y1="-71" x2="65.5" y2="-85.7"/>
		<line class="st1" x1="63.2" y1="-68.7" x2="63.2" y2="-83.3"/>
		<line class="st1" x1="73" y1="-67.5" x2="58.3" y2="-67.5"/>
		<line class="st1" x1="65" y1="-64.8" x2="50.3" y2="-64.8"/>
		<line class="st1" x1="54.7" y1="-61.8" x2="40" y2="-61.8"/>
		<line class="st1" x1="64.8" y1="-46.2" x2="64.8" y2="-60.8"/>
		<line class="st1" x1="51.8" y1="-78" x2="51.8" y2="-92.7"/>
		<line class="st1" x1="77.8" y1="-61.2" x2="77.8" y2="-75.8"/>
		<line class="st1" x1="71" y1="-49.8" x2="71" y2="-64.5"/>
		<line class="st1" x1="74.2" y1="-44.5" x2="74.2" y2="-59.2"/>
		<line class="st1" x1="67.5" y1="-55.8" x2="67.5" y2="-70.5"/>
		<line class="st1" x1="79.5" y1="-52.8" x2="79.5" y2="-67.5"/>
		<line class="st1" x1="82.5" y1="-47.3" x2="82.5" y2="-62"/>
		<line class="st1" x1="80.8" y1="-47" x2="80.8" y2="-61.7"/>
		<line class="st1" x1="76" y1="-49.3" x2="76" y2="-64"/>
		<line class="st1" x1="72.7" y1="-62.8" x2="87.3" y2="-62.8"/>
		<line class="st1" x1="76" y1="-65.8" x2="90.7" y2="-65.8"/>
		<line class="st1" x1="78" y1="-61.5" x2="92.7" y2="-61.5"/>
		<line class="st1" x1="78" y1="-56.2" x2="92.7" y2="-56.2"/>
		<line class="st1" x1="80.7" y1="-58.8" x2="95.3" y2="-58.8"/>
		<line class="st1" x1="82.7" y1="-53.8" x2="97.3" y2="-53.8"/>
		<line class="st1" x1="51" y1="-76.2" x2="65.7" y2="-76.2"/>
		<line class="st1" x1="55.3" y1="-73.5" x2="70" y2="-73.5"/>
		<line class="st1" x1="54.7" y1="-68.8" x2="69.3" y2="-68.8"/>
		<line class="st1" x1="39" y1="-58.8" x2="53.7" y2="-58.8"/>
		<line class="st1" x1="64" y1="-60" x2="78.7" y2="-60"/>
		<line class="st1" x1="64.3" y1="-58" x2="79" y2="-58"/>
		<line class="st1" x1="69.8" y1="-43.8" x2="69.8" y2="-58.5"/>
		<line class="st1" x1="67.7" y1="-40.3" x2="67.7" y2="-55"/>
		<line class="st1" x1="61.3" y1="-46" x2="61.3" y2="-60.7"/>
		<line class="st1" x1="58.7" y1="-51.7" x2="73.3" y2="-51.7"/>
		<line class="st1" x1="61.3" y1="-43" x2="76" y2="-43"/>
		<line class="st1" x1="64.3" y1="-53.8" x2="79" y2="-53.8"/>
		<line class="st1" x1="81.3" y1="-21.3" x2="96" y2="-21.3"/>
		<line class="st1" x1="79.7" y1="-28" x2="94.3" y2="-28"/>
		<line class="st1" x1="16.7" y1="-17.2" x2="2" y2="-17.2"/>
		<line class="st1" x1="20.2" y1="-22.7" x2="5.5" y2="-22.7"/>
		<line class="st1" x1="2.3" y1="-30.8" x2="17" y2="-30.8"/>
		<line class="st1" x1="6" y1="-79.8" x2="20.7" y2="-79.8"/>
		<line class="st1" x1="2.3" y1="-84.5" x2="17" y2="-84.5"/>
		<line class="st1" x1="7.7" y1="-82.5" x2="22.3" y2="-82.5"/>
		<line class="st1" x1="3" y1="-77.5" x2="17.7" y2="-77.5"/>
		<line class="st1" x1="7.7" y1="-68.8" x2="22.3" y2="-68.8"/>
		<line class="st1" x1="4.3" y1="-73.2" x2="19" y2="-73.2"/>
		<line class="st1" x1="17.8" y1="-37.7" x2="3.2" y2="-37.7"/>
		<line class="st1" x1="18.3" y1="-41.2" x2="3.7" y2="-41.2"/>
		<line class="st1" x1="21.3" y1="-43.2" x2="6.7" y2="-43.2"/>
		<line class="st1" x1="7" y1="-33" x2="21.7" y2="-33"/>
		<line class="st1" x1="17.5" y1="-47.2" x2="2.8" y2="-47.2"/>
		<line class="st1" x1="21.5" y1="-49.2" x2="6.8" y2="-49.2"/>
		<line class="st1" x1="15.8" y1="-51.5" x2="1.2" y2="-51.5"/>
		<line class="st1" x1="4" y1="-65.8" x2="18.7" y2="-65.8"/>
		<line class="st1" x1="6" y1="-61.5" x2="20.7" y2="-61.5"/>
		<line class="st1" x1="6" y1="-56.2" x2="20.7" y2="-56.2"/>
		<line class="st1" x1="8.7" y1="-58.8" x2="23.3" y2="-58.8"/>
		<line class="st1" x1="10.7" y1="-53.8" x2="25.3" y2="-53.8"/>
		<line class="st1" x1="25.8" y1="-79.2" x2="25.8" y2="-93.8"/>
		<line class="st1" x1="23.2" y1="-76.8" x2="23.2" y2="-91.5"/>
		<line class="st1" x1="76.2" y1="-82.7" x2="76.2" y2="-97.3"/>
		<line class="st1" x1="73.7" y1="-82" x2="73.7" y2="-96.7"/>
		<line class="st1" x1="50.3" y1="-82.7" x2="50.3" y2="-97.3"/>
		<line class="st1" x1="81.5" y1="-82.7" x2="81.5" y2="-97.3"/>
		<line class="st1" x1="56" y1="-80.8" x2="56" y2="-95.5"/>
		<line class="st1" x1="29.7" y1="-82" x2="29.7" y2="-96.7"/>
		<line class="st1" x1="14.7" y1="-81.8" x2="14.7" y2="-96.5"/>
		<line class="st1" x1="19.7" y1="-79.8" x2="19.7" y2="-94.5"/>
		<line class="st1" x1="47.7" y1="-82.7" x2="47.7" y2="-97.3"/>
		<line class="st1" x1="71.3" y1="-74.3" x2="71.3" y2="-89"/>
		<line class="st1" x1="46" y1="-74.3" x2="46" y2="-89"/>
		<line class="st1" x1="16.7" y1="-17.2" x2="2" y2="-17.2"/>
		<line class="st1" x1="15.2" y1="-19.7" x2="0.5" y2="-19.7"/>
		<line class="st1" x1="20.2" y1="-22.7" x2="5.5" y2="-22.7"/>
		<line class="st1" x1="2.3" y1="-30.8" x2="17" y2="-30.8"/>
		<line class="st1" x1="6" y1="-79.8" x2="20.7" y2="-79.8"/>
		<line class="st1" x1="2.3" y1="-84.5" x2="17" y2="-84.5"/>
		<line class="st1" x1="7.7" y1="-82.5" x2="22.3" y2="-82.5"/>
		<line class="st1" x1="3" y1="-77.5" x2="17.7" y2="-77.5"/>
		<line class="st1" x1="0" y1="-70.8" x2="14.7" y2="-70.8"/>
		<line class="st1" x1="7.7" y1="-68.8" x2="22.3" y2="-68.8"/>
		<line class="st1" x1="4.3" y1="-73.2" x2="19" y2="-73.2"/>
		<line class="st1" x1="17.8" y1="-37.7" x2="3.2" y2="-37.7"/>
		<line class="st1" x1="18.3" y1="-41.2" x2="3.7" y2="-41.2"/>
		<line class="st1" x1="21.3" y1="-43.2" x2="6.7" y2="-43.2"/>
		<line class="st1" x1="7" y1="-33" x2="21.7" y2="-33"/>
		<line class="st1" x1="17.5" y1="-47.2" x2="2.8" y2="-47.2"/>
		<line class="st1" x1="21.5" y1="-49.2" x2="6.8" y2="-49.2"/>
		<line class="st1" x1="15.8" y1="-51.5" x2="1.2" y2="-51.5"/>
		<line class="st1" x1="0.7" y1="-62.8" x2="15.3" y2="-62.8"/>
		<line class="st1" x1="4" y1="-65.8" x2="18.7" y2="-65.8"/>
		<line class="st1" x1="6" y1="-61.5" x2="20.7" y2="-61.5"/>
		<line class="st1" x1="6" y1="-56.2" x2="20.7" y2="-56.2"/>
		<line class="st1" x1="8.7" y1="-58.8" x2="23.3" y2="-58.8"/>
		<line class="st1" x1="10.7" y1="-53.8" x2="25.3" y2="-53.8"/>
		<line class="st1" x1="9.3" y1="-21.3" x2="24" y2="-21.3"/>
		<line class="st1" x1="7.7" y1="-28" x2="22.3" y2="-28"/>
		<line class="st1" x1="71.3" y1="-2.3" x2="71.3" y2="-17"/>
		<line class="st1" x1="72.8" y1="-0.8" x2="72.8" y2="-15.5"/>
		<line class="st1" x1="78.2" y1="-6.3" x2="78.2" y2="-21"/>
		<line class="st1" x1="82.5" y1="-3.7" x2="82.5" y2="-18.3"/>
		<line class="st1" x1="32.2" y1="-1.2" x2="32.2" y2="-15.8"/>
		<line class="st1" x1="38.7" y1="-2" x2="38.7" y2="-16.7"/>
		<line class="st1" x1="46" y1="-2.3" x2="46" y2="-17"/>
		<line class="st1" x1="43.8" y1="-1.2" x2="43.8" y2="-15.8"/>
		<line class="st1" x1="50" y1="0" x2="50" y2="-14.7"/>
		<line class="st1" x1="67.8" y1="0" x2="67.8" y2="-14.7"/>
		<line class="st1" x1="60.8" y1="-8" x2="60.8" y2="-22.7"/>
		<line class="st1" x1="51.8" y1="-6" x2="51.8" y2="-20.7"/>
		<line class="st1" x1="25.8" y1="-7.2" x2="25.8" y2="-21.8"/>
		<line class="st1" x1="23.2" y1="-4.8" x2="23.2" y2="-19.5"/>
		<line class="st1" x1="76.2" y1="-10.7" x2="76.2" y2="-25.3"/>
		<line class="st1" x1="73.7" y1="-10" x2="73.7" y2="-24.7"/>
		<line class="st1" x1="50.3" y1="-10.7" x2="50.3" y2="-25.3"/>
		<line class="st1" x1="81.5" y1="-10.7" x2="81.5" y2="-25.3"/>
		<line class="st1" x1="56" y1="-8.8" x2="56" y2="-23.5"/>
		<line class="st1" x1="29.7" y1="-10" x2="29.7" y2="-24.7"/>
		<line class="st1" x1="14.7" y1="-9.8" x2="14.7" y2="-24.5"/>
		<line class="st1" x1="19.7" y1="-7.8" x2="19.7" y2="-22.5"/>
		<line class="st1" x1="47.7" y1="-10.7" x2="47.7" y2="-25.3"/>
		<line class="st1" x1="71.3" y1="-2.3" x2="71.3" y2="-17"/>
		<line class="st1" x1="46" y1="-2.3" x2="46" y2="-17"/>
	</g>
</pattern>
<title>mic</title>
<g>
	<g id="Layer_1_1_">
		<path class="st2" d="M144.8,162.7c9-28,35.1-45.1,60.3-41.9c30.1,3.7,52.1,35.4,46.2,49.2c-6.3,14.7-40-1-80,20.3
			c-5.4,2.8-47.2,25.1-46.5,58.7c0.7,34.4,46.1,67.7,73.4,57c19.8-7.7,27.7-37.5,27.8-57c0.3-26.6-13.8-30-10.8-49.8
			c3.4-22.7,22.8-24.9,51.8-66.2c12.1-17.3,18.2-26,19.7-35.7c6.2-41.7-44.6-94.7-89.4-95.7c-14.5-0.3-16.8,5-43.6,6.2
			c-33.4,1.5-39.9-6.4-54.7-1c-23,8.5-37,38.6-37.7,64.2c-0.8,30.6,16.7,58.8,41,71.8c9,4.8,23.5,12.6,38,7.9
			c19.2-6.2,20.6-28.2,50.1-44.9c11.6-6.5,16.3-5.9,18.7-5.2c13.5,3.8,21.3,28.8,17.4,48.5c-6,30.3-39.2,46-45.6,48.8
			c-25.3,11.3-45.8,6.3-48.2,15.1c-1.2,4.5,3.3,8.4,21,26.2c27.8,28,32.7,34.5,32.4,42.9c-0.2,9-6.3,18.4-13.9,20.4
			c-11,2.8-23.5-10.4-28.4-21.5c-8.8-19.7-1.7-51,22.1-61.8c15.5-7,36.3-4.5,46.9,7c13.7,14.9,11.2,46.4,9.7,65.9
			c-0.4,4.8-1.2,12.4,1.5,21.9c3.9,13.7,13.7,25.7,16.3,24.5c3.5-1.6-4-26.8-15.1-44.5c-0.6-0.9-4.4-7-5.4-6.5
			c-1.3,0.6,4.4,10.5,5,20.7c0.9,14.6-8.5,30.2-20.3,38.1c-21.2,14.2-50.8,3.3-66.8-9.7c-25.9-21.1-26.6-56.2-26.8-67.7
			c-0.4-22.5,6.5-23.6,16.2-75.9c6.2-33.6,5.5-44.5,4.4-52c-2-14-5.3-37.2-23.9-51.4C86.8,73.7,56.2,75.9,36,87.9
			C6.9,105-6.8,146,6.8,186.6"/>
		<polygon class="st3" points="4.1,187 9.6,184.8 13.9,195.9 21.9,209.7 11.6,213.2 8.1,197 		"/>
		<path class="st3" d="M23,208.2l-13.4,5.3c-3.4,1.4-5.2,5.2-4,8.7l3.3,9.6l26.8-10l-3.6-9.5c-1.3-3.6-5.3-5.4-8.9-4
			C23.1,208.1,23,208.2,23,208.2z"/>
		<path class="st3" d="M20.4,222.6c0,0-13.5,5.8-13.1,9.9s30.2,132.5,50.6,129.1c12.6-2.1,19.6-3.6,29.8-10.8
			c15.9-11.4-41.9-119.1-49.3-128.2C34.6,218.1,20.4,222.6,20.4,222.6z"/>
		<path class="st4" d="M74.6,292.1c-2.4,0.1-4.7,0.7-6.9,1.5c-4.2,1.5,0.9,10-9.7,15.3s-15.1-2.9-19.7-4s-10.8,2.9-10.8,2.9
			s16.3,55.1,30.5,53.8c10.7-0.9,21-4.6,29.8-10.8C97.5,343.7,83,310.3,74.6,292.1z"/>
		<pattern  id="SVGID_1_" xlink:href="#Burlap" patternTransform="matrix(0.94 0 0 -0.99 -1712.7202 -14217.8789)">
		</pattern>
		<path class="st5" d="M73.3,291.1c-2.2,0.1-4.4,0.7-6.4,1.5c-3.9,1.5,0.8,9.9-9.1,15.1s-14.1-2.8-18.5-4s-10.2,2.9-10.2,2.9
			s15.3,54.6,28.6,53.3c10.1-0.9,19.8-4.6,27.9-10.7C94.8,342.2,81.2,309.1,73.3,291.1z"/>
		
			<ellipse transform="matrix(0.9404 -0.3401 0.3401 0.9404 -89.3917 28.8858)" class="st6" cx="37.7" cy="269.4" rx="10.9" ry="18.7"/>
		
			<ellipse transform="matrix(0.9404 -0.3401 0.3401 0.9404 -99.2013 36.1921)" class="st6" cx="53.6" cy="301.1" rx="9.6" ry="7.7"/>
		<polygon class="st6" points="145,152.1 135.4,183.2 141.4,187.1 143.4,182.5 151.2,153.5 		"/>
		<polygon class="st7" points="134.8,193.1 137.3,181.8 141.8,182.8 139.3,192.2 137.5,194.4 		"/>
	</g>
</g>
</svg>
