<svg id="Layer_1" data-name="Layer 1" xmlns="http://www.w3.org/2000/svg" xmlns:xlink="http://www.w3.org/1999/xlink" viewBox="0 0 95.6 138.46"><defs><style>.cls-1{fill:url(#linear-gradient);}.cls-2{fill:#be5632;}.cls-3{fill:#dee1b6;}</style><linearGradient id="linear-gradient" x1="47.8" y1="138.46" x2="47.8" gradientUnits="userSpaceOnUse"><stop offset="0.35" stop-color="#dee1b6"/><stop offset="0.44" stop-color="#dcd6ac"/><stop offset="0.59" stop-color="#d5ba91"/><stop offset="0.8" stop-color="#ca8b65"/><stop offset="1" stop-color="#be5632"/></linearGradient></defs><title>ojai</title><polygon class="cls-1" points="0 8.43 89.23 0 95.6 131.05 1.32 138.47 0 8.43"/><path class="cls-2" d="M1393.34,938.09s5.36,2.09,9.55.95,14.09-5.14,16.94-4.95,11.62,2.28,15,1.52,11.8-4.76,14.47-4.76,13.52-.57,14.66-1.33,11-3,13.13-2.09,7,.87,9.13-.23l1.68,34.51-94.28,7.41Z" transform="translate(-1392.33 -830.66)"/><path class="cls-3" d="M1417.15,878.32c-1.15-1.46-1.27-3.56-2.19-5.49a1.53,1.53,0,0,1,.57-.29,2.37,2.37,0,0,1-.12-.6c-.11-1.48.78-3.62.67-5a1.77,1.77,0,0,0-.12-.59,2.71,2.71,0,0,1,.92-.25,1.62,1.62,0,0,1,1,.21,4.48,4.48,0,0,1,3.22-1.72,3.81,3.81,0,0,1,3.63,1.63,1.42,1.42,0,0,1,.66-.21,1.56,1.56,0,0,1,.68.09,11.59,11.59,0,0,0,.85,4.67,1.9,1.9,0,0,1,.71.18,17.15,17.15,0,0,0-.55,4.06c-.16,2.77-1.57,4.71-4.93,5C1419.5,880.19,1418.05,879.49,1417.15,878.32Zm5-4.57a9.37,9.37,0,0,0-.22-1.31,1.14,1.14,0,0,1,.44-.2,1.36,1.36,0,0,0,0-.2,3,3,0,0,0-1-2.4,2.23,2.23,0,0,1,.41-1,1.27,1.27,0,0,0-.6-.1c-.77.06-1.4.88-1.27,2.68v.06a1.58,1.58,0,0,1,.44,0,3.88,3.88,0,0,0-.17,1.72,7.78,7.78,0,0,0,.25,1.47,1.07,1.07,0,0,1,.35-.08c.1.49.27.91.75.87S1422.23,874.8,1422.15,873.75Z" transform="translate(-1392.33 -830.66)"/><path class="cls-3" d="M1428.72,876.83a3,3,0,0,1,.35-1.5,1.74,1.74,0,0,1-.4-1A2.34,2.34,0,0,1,1429,873a1.89,1.89,0,0,0,1.41.47c.75-.06,1.26-.87,1.18-1.9a3.36,3.36,0,0,0-.71-1.77,1.34,1.34,0,0,1,.62-.47,3.65,3.65,0,0,0,0-.47,4.33,4.33,0,0,0-1.82-3.48,2.08,2.08,0,0,1,1.8-1.23,3.32,3.32,0,0,1,2.33.84,2,2,0,0,1,1.72-1.13,2.32,2.32,0,0,1,.7,0,17.78,17.78,0,0,0-.06,3.76,26.5,26.5,0,0,0,.38,2.85,1.22,1.22,0,0,1,.74,1.06c-1,.47-1,1-1,3.47s-1,3.75-3.74,4C1430.19,879.14,1428.83,878.21,1428.72,876.83Z" transform="translate(-1392.33 -830.66)"/><path class="cls-3" d="M1448.21,876.94a2.32,2.32,0,0,1-1.75,1,1.62,1.62,0,0,1-1-.21,5,5,0,0,0,.31-2.17,3.91,3.91,0,0,0-.46-1.61,2.48,2.48,0,0,1-1.44.56,2.15,2.15,0,0,1-.44,0c0,.31,0,.65,0,1a6.59,6.59,0,0,0,.49,2.27,2.16,2.16,0,0,1-1.06.36,2,2,0,0,1-1.7-.65,1.6,1.6,0,0,1-1.4,1c-1,.08-1.4-.59-1.46-1.4a3.07,3.07,0,0,1,.07-.94.33.33,0,0,0,.14,0c.61-.05,1-1.17.87-2.69a7.08,7.08,0,0,0-.59-2.48,2.64,2.64,0,0,1,.91-.31c0-.19-.06-.37-.08-.57-.17-2.21,1.08-4.09,1-5.73a2.61,2.61,0,0,0-.08-.5l.37-.06a2.14,2.14,0,0,1,1.85.77,2.69,2.69,0,0,1,1.23-1.62,3.2,3.2,0,0,1,1.37,1.28,3.27,3.27,0,0,1,1.68-.6,2,2,0,0,1,.74.06,12.16,12.16,0,0,0,0,1.91,10.11,10.11,0,0,0,.71,3.15,2.19,2.19,0,0,1,.51-.1,3,3,0,0,1,1,.09,23.88,23.88,0,0,0-.06,3.64c.14,1.86.61,3,1.46,3a.88.88,0,0,1,0,.27,1.71,1.71,0,0,1-1.54,2A2.13,2.13,0,0,1,1448.21,876.94Zm-4.81-6.11c0,.15,0,.33.06.51a4.57,4.57,0,0,0,.79,0c.83-.07,1.16-.51,1.09-1.36a20.66,20.66,0,0,0-.8-2.72A4,4,0,0,0,1443.4,870.83Z" transform="translate(-1392.33 -830.66)"/><path class="cls-3" d="M1456.32,876.26a2.56,2.56,0,0,1-1.83,1,1.84,1.84,0,0,1-1.67-.77,10,10,0,0,0,.59-4.26,9.49,9.49,0,0,0-1.06-3.73,2.22,2.22,0,0,1,1.05-.38c-.27-2.23-.93-3.75-1.61-4.31a1.81,1.81,0,0,1,1.65-1.38,1.65,1.65,0,0,1,1.62,1.17,2.91,2.91,0,0,1,2.08-1.43,1.66,1.66,0,0,1,1.68,1.68c-.75.41-1.13,1.4-1,3.41,0,.32.07.65.12,1a.77.77,0,0,1,.25,0,2,2,0,0,1,.56,0,12.85,12.85,0,0,0-.33,4.24,7.84,7.84,0,0,0,1,3.66,2,2,0,0,1-1.38.7A2.32,2.32,0,0,1,1456.32,876.26Z" transform="translate(-1392.33 -830.66)"/></svg>