<svg id="Layer_1" data-name="Layer 1" xmlns="http://www.w3.org/2000/svg" viewBox="0 0 38.74 73.57"><defs><style>.cls-1{fill:gray;}.cls-2{fill:#999;}.cls-3{fill:red;}.cls-4{fill:#b3b3b3;}.cls-5{fill:#be5632;}</style></defs><title>orangelighter</title><circle class="cls-1" cx="27.83" cy="3.99" r="3.99"/><circle class="cls-2" cx="28.64" cy="4.36" r="3.99"/><path class="cls-3" d="M1447.32,869.58l1.25-3.83-9.33-2.36C1436,867.36,1447.32,869.58,1447.32,869.58Z" transform="translate(-1422.42 -858.02)"/><polygon class="cls-4" points="36.62 16 26.36 11.71 23.24 11.15 29.38 2.08 38.74 4.64 37.12 14.14 36.62 16"/><path class="cls-5" d="M1440.91,931.53,1424.45,928l-.15,0a2.53,2.53,0,0,1-1.78-3.13l16.08-58.54,20.94,5.88-15.64,57.54A2.54,2.54,0,0,1,1440.91,931.53Z" transform="translate(-1422.42 -858.02)"/></svg>