<svg id="Layer_1" data-name="Layer 1" xmlns="http://www.w3.org/2000/svg" viewBox="0 0 70.67 75.92"><defs><style>.cls-1{fill:#be5632;}.cls-2{fill:#373b44;}</style></defs><title>picks</title><path class="cls-1" d="M1451.71,863.74a2.89,2.89,0,0,0-4.68.81l-4.47,9.67a6.64,6.64,0,0,0,.22,6.79c1.46,2.14,4.47,3.88,10.73,2.3,7.3-1.83,8.7-4.94,8.61-7.22a5.2,5.2,0,0,0-1.88-3.66Z" transform="translate(-1403 -862.88)"/><path class="cls-2" d="M1403.14,912.82c-.64,2,1,3.66,3.18,3.18l11.5-2.49a8.87,8.87,0,0,0,6.33-4.39c1.28-2.48,1.38-5.94-3.34-9.89-5.5-4.6-9.19-3.78-11.3-2.29a6.35,6.35,0,0,0-2.51,3.76Z" transform="translate(-1403 -862.88)"/><path class="cls-1" d="M1473.05,926.45a2.89,2.89,0,0,0-1.41-4.53l-8.85-2.46-3.94-.71a6.5,6.5,0,0,0-5.46,1.44c-1.93,1.72-3.26,4.94-.89,10.94,2.77,7,6,8,8.28,7.6a5.08,5.08,0,0,0,3.08-1.91,8.83,8.83,0,0,1,.68-.81Z" transform="translate(-1403 -862.88)"/></svg>