<svg id="Layer_1" data-name="Layer 1" xmlns="http://www.w3.org/2000/svg" viewBox="0 0 74.77 32.16"><defs><style>.cls-1{fill:gray;}.cls-2{fill:#999;}.cls-3{fill:red;}.cls-4{fill:#b3b3b3;}.cls-5{fill:#75c7a9;}</style></defs><title>relax</title><circle class="cls-1" cx="70.79" cy="22.63" r="3.99"/><circle class="cls-2" cx="70.79" cy="21.74" r="3.99"/><path class="cls-3" d="M1467.05,916.29l1.77-9.46-4-.47S1462.07,917.61,1467.05,916.29Z" transform="translate(-1402.13 -884.24)"/><polygon class="cls-4" points="65.47 9.94 74.77 12.45 73.17 22.02 62.37 23.8 63.16 20.73 63.57 9.62 65.47 9.94"/><path class="cls-5" d="M1408.79,884.28l58.8,9.9-3.44,21.48-59.89-9.92a2.55,2.55,0,0,1-2.07-3.08l3.69-16.43A2.54,2.54,0,0,1,1408.79,884.28Z" transform="translate(-1402.13 -884.24)"/><path d="M1411.38,902.46l-4-.69,2.15-12.4,5.44.94c3,.51,4.07,2.22,3.66,4.57a3.62,3.62,0,0,1-2.33,3.13l1.25,5.52-4.17-.72-.89-4.8-.38-.07Zm1.8-7.3c.7.12,1.33.09,1.48-.75.1-.58-.1-1-.89-1.11l-.78-.14-.33,1.91Z" transform="translate(-1402.13 -884.24)"/><path d="M1426.85,900.28l-3.7-.64-.25,1.47,4.34.75-.56,3.25-8.33-1.45,2.15-12.4,8.17,1.41-.55,3.23-4.19-.72-.23,1.3,3.7.64Z" transform="translate(-1402.13 -884.24)"/><path d="M1432.25,902.73l3.8.65-.57,3.25-7.79-1.35,2.15-12.4,4,.69Z" transform="translate(-1402.13 -884.24)"/><path d="M1446.57,895.77l1.88,13.1-4.07-.7-.29-2.38-3.46-.6-1.05,2.15-3.92-.68,6-11.73Zm-3.1,3.28h-.07l-1.5,3.32,1.91.33Z" transform="translate(-1402.13 -884.24)"/><path d="M1448.16,908.83l4.61-5.8-2.34-6.59,4.63.8.89,3.9.1,0,2.17-3.37,4.46.77-4.34,5.38,2.35,7-4.68-.81-1-3.9-.1,0-2.23,3.34Z" transform="translate(-1402.13 -884.24)"/></svg>