<svg id="Layer_1" data-name="Layer 1" xmlns="http://www.w3.org/2000/svg" viewBox="0 0 73.43 91.89"><defs><style>.cls-1{fill:#b3b3b3;}.cls-2{fill:#999;}.cls-3{fill:gray;}.cls-4{fill:red;}.cls-5{fill:lime;}.cls-6{fill:#4d4d4d;}</style></defs><title>tuner</title><polygon class="cls-1" points="1.3 13.25 44.75 0 73.43 73.53 29.11 87.55 1.3 13.25"/><polygon class="cls-2" points="73.43 73.53 72.88 77.99 28.02 91.89 29.11 87.55 73.43 73.53"/><polygon class="cls-3" points="1.3 13.25 0 17.27 28.02 91.89 29.11 87.55 1.3 13.25"/><polygon class="cls-3" points="11.53 15.56 28.45 10.32 41.91 45.77 24.9 51.1 11.53 15.56"/><circle class="cls-4" cx="9.59" cy="23.86" r="1.44"/><circle class="cls-5" cx="13.56" cy="34.09" r="1.44"/><circle class="cls-4" cx="17.54" cy="44.33" r="1.44"/><ellipse class="cls-6" cx="1423.28" cy="917.41" rx="0.68" ry="3.55" transform="translate(-1611.61 -394.66) rotate(-17.1)"/><polygon class="cls-6" points="38.2 10.03 41.42 9.13 43.16 13.25 39.94 14.15 38.2 10.03"/><polygon class="cls-6" points="40.48 15.97 43.75 15.02 46.07 20.69 42.8 21.57 40.48 15.97"/><polygon class="cls-6" points="44.18 24.69 47.31 23.86 49.42 29.93 46.36 30.71 44.18 24.69"/><polygon class="cls-6" points="47.53 33.05 50.65 32.25 52.91 38.4 49.7 39.25 47.53 33.05"/><path d="M1466.26,926.16l.41,1.12,1.45-.54-.28-.75.83-.3.28.74,2.4-.88.3.81-5.52,2-.71-1.92Z" transform="translate(-1404.76 -853.79)"/><path d="M1466.12,925.78l-.84.31-.86-2.34.83-.31.29.77,4.68-1.73.3.81-4.69,1.73Z" transform="translate(-1404.76 -853.79)"/><path d="M1467.5,922.45l-.4-1.09.71-.26.41,1.08Z" transform="translate(-1404.76 -853.79)"/><path d="M1465.55,921.44l-.38.14a2.06,2.06,0,0,1-1.07.16,1,1,0,0,1-.75-.71,1.06,1.06,0,0,1,.08-1,2,2,0,0,1,.89-.58,5.5,5.5,0,0,1,2-.21,15,15,0,0,1,1.84.22l-.47-1.28.8-.29.81,2.19-.8.3c-.48-.11-1-.19-1.42-.25a8.45,8.45,0,0,0-1.25-.06,4,4,0,0,0-1.19.17,2.15,2.15,0,0,0-.43.21c-.11.09-.19.19-.14.31a.25.25,0,0,0,.28.14,1.74,1.74,0,0,0,.49-.12l.39-.14Z" transform="translate(-1404.76 -853.79)"/><path d="M1466.36,915.51a1.51,1.51,0,0,1,.65-.09,1.07,1.07,0,0,1,.52.17,1,1,0,0,1,.42.56,1,1,0,0,1-.24,1.16,1.59,1.59,0,0,1-.56.36l-3.24,1.2a1.64,1.64,0,0,1-.65.08,1.13,1.13,0,0,1-.52-.16,1.08,1.08,0,0,1-.42-.57,1.13,1.13,0,0,1,0-.69,1.09,1.09,0,0,1,.3-.47,1.37,1.37,0,0,1,.54-.35Zm-2.95,2a.56.56,0,0,0-.31.24.28.28,0,0,0,0,.18.27.27,0,0,0,.29.17.93.93,0,0,0,.22,0l3.25-1.2a.57.57,0,0,0,.3-.24.23.23,0,0,0,0-.18.25.25,0,0,0-.29-.17.63.63,0,0,0-.21.05Z" transform="translate(-1404.76 -853.79)"/><path d="M1465.33,912.73a1.53,1.53,0,0,1,.65-.09,1.18,1.18,0,0,1,.53.17,1.26,1.26,0,0,1,.46,1.26,1,1,0,0,1-.29.46,1.55,1.55,0,0,1-.55.36l-3.25,1.2a1.61,1.61,0,0,1-.64.08,1.05,1.05,0,0,1-.53-.16,1.09,1.09,0,0,1-.42-.56,1,1,0,0,1,.25-1.17,1.44,1.44,0,0,1,.54-.35Zm-2.95,2a.48.48,0,0,0-.3.23.21.21,0,0,0,0,.19.26.26,0,0,0,.29.16.78.78,0,0,0,.21,0l3.25-1.2a.47.47,0,0,0,.3-.24.22.22,0,0,0,0-.18.27.27,0,0,0-.29-.17.68.68,0,0,0-.22,0Z" transform="translate(-1404.76 -853.79)"/><path d="M1464.31,910a1.7,1.7,0,0,1,.65-.09,1.2,1.2,0,0,1,.52.18,1,1,0,0,1,.42.55,1.09,1.09,0,0,1,0,.7,1.13,1.13,0,0,1-.29.46,1.64,1.64,0,0,1-.55.36l-3.25,1.2a1.64,1.64,0,0,1-.65.08,1,1,0,0,1-.52-.16,1.09,1.09,0,0,1-.42-.56,1,1,0,0,1,.25-1.17,1.74,1.74,0,0,1,.54-.35Zm-3,2a.53.53,0,0,0-.31.23.31.31,0,0,0,0,.19.27.27,0,0,0,.29.16.6.6,0,0,0,.22,0l3.25-1.2a.53.53,0,0,0,.3-.24.22.22,0,0,0,0-.18.25.25,0,0,0-.29-.16.43.43,0,0,0-.21,0Z" transform="translate(-1404.76 -853.79)"/><g id="telOeo"><path d="M1444.78,935.12a1.14,1.14,0,0,1-.47-.16,18.23,18.23,0,0,1-3.61-2.63,9.24,9.24,0,0,1-1.34-1.52,3.16,3.16,0,0,1-.41-.77,1,1,0,0,1,.51-1.24,3.88,3.88,0,0,1,1.18-.38l1.26-.19h0c.13,0,.16-.1.08-.21l-1-1.32s0-.06,0-.1a.73.73,0,0,1,.66-.15.47.47,0,0,1,.2.17c.17.23.31.46.47.69s.32.42.48.64a.41.41,0,0,0,.38.16,25.25,25.25,0,0,1,2.61,0l2.56.12a.44.44,0,0,1,.41.31c0,.12.09.23.13.35a.67.67,0,0,1,0,.2.17.17,0,0,1-.2.16l-.81-.06c-1-.1-2-.21-2.94-.23h-1.07s-.08,0-.09.06a.12.12,0,0,0,0,.1l.38.39.24.25.07.1a.16.16,0,0,1-.06.26.71.71,0,0,1-.38.12.27.27,0,0,1-.27-.14,11,11,0,0,0-.93-1,.09.09,0,0,0-.07,0,15.76,15.76,0,0,0-2.17.19,3.69,3.69,0,0,0-.67.19.47.47,0,0,0-.27.71,3.15,3.15,0,0,0,.42.65,6.44,6.44,0,0,0,1.16,1.05,16.8,16.8,0,0,0,2.87,1.75c.29.14.57.3.85.45a.4.4,0,0,1,.22.43.91.91,0,0,1-.26.56l0,0Z" transform="translate(-1404.76 -853.79)"/><path d="M1433.78,916.76c0-.28.15-.36.44-.36.45,0,.91,0,1.37.05,1,0,2,0,3,0a13.59,13.59,0,0,0,1.69-.13,2.72,2.72,0,0,0,.69-.19.51.51,0,0,0,.16-.09.33.33,0,0,0,.1-.49,2.68,2.68,0,0,0-.23-.26.26.26,0,0,1,0-.41.32.32,0,0,1,.23-.06.57.57,0,0,1,.33.16,1.26,1.26,0,0,1,.43,1.19,1.13,1.13,0,0,1,0,.18.34.34,0,0,0,.11.33,3.16,3.16,0,0,1,.39.43,1,1,0,0,1-.25,1.4,2,2,0,0,1-1.23.43,1.87,1.87,0,0,1-1.18-.26,1.13,1.13,0,0,1-.53-1.14.34.34,0,0,1,.2-.32.15.15,0,0,1,.22.1.55.55,0,0,1,0,.17.62.62,0,0,0,.41.54,1.55,1.55,0,0,0,1.06.09,1.37,1.37,0,0,0,.57-.27.48.48,0,0,0,0-.78.9.9,0,0,0-.77-.18c-.29,0-.57.11-.85.17a12.76,12.76,0,0,1-2.05.25c-1,.07-2.1.13-3.15.11-.22,0-.44,0-.65,0a.46.46,0,0,1-.35-.2s0,0,0,0Z" transform="translate(-1404.76 -853.79)"/><path d="M1436.11,909.72h.12a.44.44,0,0,1,.4.4.44.44,0,0,1-.32.47.44.44,0,0,1-.53-.22.45.45,0,0,1,.12-.55l0-.05Zm.44.32a.4.4,0,0,0-.51-.23.39.39,0,0,0,.27.73A.39.39,0,0,0,1436.55,910Z" transform="translate(-1404.76 -853.79)"/><path d="M1441.3,924.13a.6.6,0,0,1,1,.14,5.76,5.76,0,0,1,.27.73c.11.33.21.66.32,1a.8.8,0,0,0,.13.22.18.18,0,0,0,.22,0,.17.17,0,0,0,.08-.19,4,4,0,0,0-.43-1.34c-.07-.14-.14-.29-.2-.43a.21.21,0,0,1,0-.28.25.25,0,0,1,.32-.07.88.88,0,0,1,.24.19c.12.12.23.26.35.39a.92.92,0,0,0,.47.33.36.36,0,0,0,.18,0c.13-.06.15-.19.06-.32a1.25,1.25,0,0,0-.24-.27l-1-.76a4.1,4.1,0,0,1-1-.88,1.63,1.63,0,0,1-.29-.49.33.33,0,0,1,.1-.4,1.12,1.12,0,0,0,.18-.2.14.14,0,0,0-.06-.23l-.14,0a5.76,5.76,0,0,1-1-.36,1.14,1.14,0,0,1-.53-.44.66.66,0,0,1,0-.58.35.35,0,0,1,.23-.2,2.19,2.19,0,0,1,.75-.16l.91-.1a1.17,1.17,0,0,0,.25-.07c.11,0,.14-.1.1-.22a1.8,1.8,0,0,1-.08-.21.28.28,0,0,1,.07-.31.2.2,0,0,1,.22,0,.49.49,0,0,1,.24.23,3,3,0,0,1,.19.5.59.59,0,0,1-.36.7,2.93,2.93,0,0,1-.77.21l-.28.06a.2.2,0,0,0-.11,0,.38.38,0,0,0-.1.13.18.18,0,0,0,.09.12l.37.14,1.14.3a2,2,0,0,1,.57.24.45.45,0,0,1,0,.75,1.46,1.46,0,0,1-.61.23l-.39.05s-.1,0-.11.08a.14.14,0,0,0,0,.14.8.8,0,0,0,.17.15c.58.41,1.13.85,1.75,1.21a1.23,1.23,0,0,1,.49.47,1.38,1.38,0,0,1,.15.4.69.69,0,0,1-.54.8.9.9,0,0,1-.54,0l-.33-.13s-.09-.05-.13,0a.19.19,0,0,0,0,.13,2.67,2.67,0,0,1,.08.89,1.81,1.81,0,0,1-.09.31.6.6,0,0,1-.91.22,1.47,1.47,0,0,1-.42-.54,5.37,5.37,0,0,1-.29-.65A5.15,5.15,0,0,0,1441.3,924.13Z" transform="translate(-1404.76 -853.79)"/><path d="M1437.12,913.07a.77.77,0,0,1,1.11.33c.11.25.18.51.27.78s.11.37.17.56a.26.26,0,0,0,0,.09.19.19,0,0,0,.24.09.2.2,0,0,0,.12-.22c0-.23-.07-.47-.11-.7s-.12-.53-.18-.8a.19.19,0,0,1,0-.08.25.25,0,0,1,.36-.28.65.65,0,0,1,.3.22c.07.09.13.19.2.29a.84.84,0,0,0,.37.3.33.33,0,0,0,.29,0,.28.28,0,0,0,.09-.39,1.42,1.42,0,0,0-.36-.41,5.38,5.38,0,0,0-1.68-.87,2.68,2.68,0,0,0-.89-.15.25.25,0,0,0-.14,0,1.6,1.6,0,0,1-.83.24.68.68,0,0,1-.39-.11c-.12-.07-.22-.15-.21-.3a.38.38,0,0,1,.24-.38,4.28,4.28,0,0,1,.51-.15.44.44,0,0,0,.37-.3c0-.17.1-.34.16-.51a2.33,2.33,0,0,1,.11-.28.21.21,0,0,1,.28-.12c.18,0,.35.12.53.16a1.39,1.39,0,0,0,.41,0,.3.3,0,0,0,.21-.47l-.16-.18a1.09,1.09,0,0,0-.17-.13.19.19,0,0,1,0-.32.33.33,0,0,1,.33,0,1,1,0,0,1,.6.45,1.15,1.15,0,0,1,.18.81.57.57,0,0,1-.59.57,5.07,5.07,0,0,1-.55,0l-.27,0a.14.14,0,0,0-.11,0c-.13.08-.13.21-.13.34a.21.21,0,0,0,.18.18l.82.19a3.64,3.64,0,0,1,1.77,1,2.29,2.29,0,0,1,.53.9.91.91,0,0,1-.11.83.62.62,0,0,1-.77.19,3.14,3.14,0,0,1-.31-.18l-.16-.12c-.09,0-.15,0-.16.08a1.34,1.34,0,0,0,0,.2c0,.23,0,.46,0,.69a.74.74,0,0,1-.05.25.61.61,0,0,1-.88.33,1.41,1.41,0,0,1-.54-.57,4,4,0,0,1-.27-.55,7,7,0,0,0-.77-1.49Z" transform="translate(-1404.76 -853.79)"/><path d="M1436.16,910.07c0-.11.09-.14.18-.16l0,.05s-.11.07-.13.11,0,.11,0,.18l.19-.07,0,.08-.45.16c0-.08-.07-.17-.1-.26a.13.13,0,0,1,.07-.13A.12.12,0,0,1,1436.16,910.07Zm0,.19c0-.07,0-.14-.11-.16a.08.08,0,0,0-.08,0c0,.07,0,.13,0,.19Z" transform="translate(-1404.76 -853.79)"/></g></svg>